#!OML:ASF H:\Terrain\Patient Classification 1\Walking\steve\steve.ASF
:FULLY-SPECIFIED
:DEGREES
124
root 7.69447 16.0004 -7.38258 5.19882 -1.4243 3.45478
lowerback 0.790056 1.46628 -4.93516
upperback -3.00382 1.82847 0.0168853
thorax -3.70246 1.05639 2.70601
lowerneck -10.8823 0.743659 -3.11925
upperneck 12.069 1.38974 0.979923
head 5.39666 0.606249 0.923342
rclavicle 4.43228e-015 3.77691e-015
rhumerus -51.399 -12.5933 -78.5443
rradius 24.1917
rwrist -5.29431
rhand -14.0683 -41.2059
rfingers 7.12502
rthumb 12.0632 -70.8382
lclavicle 4.43228e-015 3.77691e-015
lhumerus -21.265 -2.9815 87.7368
lradius 33.0861
lwrist 18.8492
lhand -23.1968 -11.1131
lfingers 7.12502
lthumb 3.25301 18.8418
rfemur -39.9707 1.19867 20.1119
rtibia 51.7902
rfoot -18.1245 -2.8982
rtoes -17.893
lfemur -5.60698 1.5156 -28.3065
ltibia 26.0653
lfoot -20.35 -5.34852
ltoes 0.989398
125
root 7.68297 16.0039 -7.15177 5.27686 -0.77362 3.54049
lowerback 0.642064 1.27618 -4.97794
upperback -2.86504 1.58488 -0.0107651
thorax -3.45398 0.92757 2.71795
lowerneck -10.7361 0.637193 -3.01594
upperneck 11.6812 1.22952 0.924466
head 5.25546 0.532239 0.873603
rclavicle -2.38604e-014 5.76476e-015
rhumerus -52.4166 -14.2905 -76.9852
rradius 22.6411
rwrist -2.56806
rhand -13.8131 -40.8765
rfingers 7.12502
rthumb 12.3093 -70.4942
lclavicle -2.38604e-014 5.76476e-015
lhumerus -19.7873 -4.30014 87.8029
lradius 34.6812
lwrist 20.5148
lhand -24.3108 -10.9913
lfingers 7.12502
lthumb 2.17719 18.9774
rfemur -40.2576 1.02294 19.8663
rtibia 48.4862
rfoot -18.7327 -2.24715
rtoes -12.7073
lfemur -4.151 1.80302 -28.1971
ltibia 24.9151
lfoot -20.1625 -5.65736
ltoes -2.0315
126
root 7.66973 16.0156 -6.92318 5.45782 -0.27596 3.33654
lowerback 0.567755 1.13027 -4.81403
upperback -2.82238 1.40222 0.089162
thorax -3.34962 0.83051 2.73908
lowerneck -10.8332 0.523599 -3.20707
upperneck 11.4847 1.08277 1.12442
head 5.21127 0.467843 0.955482
rclavicle 5.1552e-015 2.78299e-015
rhumerus -53.6831 -16.0919 -75.0032
rradius 21.3373
rwrist 0.553274
rhand -13.1733 -40.7636
rfingers 7.12502
rthumb 12.9261 -70.3432
lclavicle 5.1552e-015 2.78299e-015
lhumerus -18.3769 -5.82338 87.8691
lradius 36.0441
lwrist 22.5688
lhand -23.8858 -11.1213
lfingers 7.12502
lthumb 2.58761 18.8428
rfemur -40.5732 1.29778 19.8111
rtibia 45.0048
rfoot -19.001 -1.89865
rtoes -9.67366
lfemur -2.82367 1.97981 -27.7686
ltibia 23.7462
lfoot -20.0477 -5.95844
ltoes -3.97638
127
root 7.65663 16.0262 -6.6915 5.66701 0.102668 3.36739
lowerback 0.436632 1.09881 -4.90111
upperback -2.83135 1.36692 0.141424
thorax -3.28582 0.814853 2.84577
lowerneck -10.8227 0.42018 -3.41246
upperneck 11.1774 0.94065 1.38799
head 5.11456 0.410331 1.05863
rclavicle -1.85872e-014 1.27222e-014
rhumerus -55.2321 -18.0233 -72.6048
rradius 20.1042
rwrist 3.5243
rhand -13.2969 -40.2105
rfingers 7.12502
rthumb 12.807 -69.7977
lclavicle -1.85872e-014 1.27222e-014
lhumerus -16.9945 -7.23896 87.9675
lradius 37.2075
lwrist 24.0472
lhand -23.6376 -10.974
lfingers 7.12502
lthumb 2.82731 18.987
rfemur -40.8395 1.59397 19.4591
rtibia 41.4573
rfoot -18.6616 -1.63723
rtoes -8.50254
lfemur -1.50144 1.54625 -27.6377
ltibia 22.3966
lfoot -19.5423 -6.47345
ltoes -1.20919
128
root 7.64169 16.031 -6.45502 5.99519 0.581476 3.50578
lowerback 0.0688095 1.03358 -5.11831
upperback -2.85115 1.29724 0.178958
thorax -3.09971 0.78248 3.01558
lowerneck -10.2156 0.321588 -3.56412
upperneck 10.4634 0.799696 1.45824
head 4.79436 0.344604 1.08791
rclavicle -2.4473e-014 -1.59028e-015
rhumerus -56.8815 -20.1722 -69.7876
rradius 18.7515
rwrist 6.64358
rhand -13.8472 -39.3383
rfingers 7.12502
rthumb 12.2764 -68.958
lclavicle -2.4473e-014 -1.59028e-015
lhumerus -15.6099 -7.78781 88.0501
lradius 38.4068
lwrist 24.6622
lhand -24.4776 -11.0452
lfingers 7.12502
lthumb 2.01609 18.925
rfemur -41.2094 1.77609 18.9405
rtibia 37.9712
rfoot -18.2559 -1.31662
rtoes -6.4296
lfemur -0.160559 1.17368 -27.5775
ltibia 20.8299
lfoot -18.7911 -7.16679
ltoes 2.79884
129
root 7.62516 16.0185 -6.22038 6.30475 1.31966 3.54629
lowerback -0.189702 0.822773 -5.25786
upperback -2.88967 1.03072 0.290532
thorax -2.97509 0.652475 3.22127
lowerneck -9.98948 0.25049 -3.5565
upperneck 10.1152 0.711481 1.31275
head 4.65229 0.294958 1.03269
rclavicle 2.57985e-014 -1.98785e-014
rhumerus -58.7121 -22.2172 -66.5933
rradius 17.5173
rwrist 9.89593
rhand -13.846 -39.3263
rfingers 7.12502
rthumb 12.2776 -68.9459
lclavicle 2.57985e-014 -1.98785e-014
lhumerus -14.4867 -7.6385 88.1316
lradius 40.1201
lwrist 25.3832
lhand -24.5668 -10.9682
lfingers 7.12502
lthumb 1.92995 19.0028
rfemur -41.5871 2.01366 18.3897
rtibia 34.6582
rfoot -17.9495 -1.25035
rtoes -6.3198
lfemur 1.32016 1.65638 -27.2737
ltibia 19.0403
lfoot -17.7253 -8.13824
ltoes 3.71054
